<mxfile host="app.diagrams.net" modified="2023-07-28T06:27:03.325Z" agent="Mozilla/5.0 (Macintosh; Intel Mac OS X 10_15_7) AppleWebKit/537.36 (KHTML, like Gecko) Chrome/114.0.0.0 Safari/537.36" etag="3RfGLAJlPmkM_OrB1Ae8" version="21.6.5" type="github">
  <diagram name="第 1 页" id="f3eELwjGRMlKZKbWPv26">
    <mxGraphModel dx="1294" dy="811" grid="1" gridSize="10" guides="1" tooltips="1" connect="1" arrows="1" fold="1" page="1" pageScale="1" pageWidth="827" pageHeight="1169" math="0" shadow="0">
      <root>
        <mxCell id="0" />
        <mxCell id="1" parent="0" />
        <mxCell id="OqEn6Bp5OOVwul3_3c2a-1" value="" style="rounded=1;whiteSpace=wrap;html=1;" vertex="1" parent="1">
          <mxGeometry x="110" y="170" width="620" height="400" as="geometry" />
        </mxCell>
        <mxCell id="OqEn6Bp5OOVwul3_3c2a-2" value="token" style="text;strokeColor=none;align=center;fillColor=none;html=1;verticalAlign=middle;whiteSpace=wrap;rounded=0;" vertex="1" parent="1">
          <mxGeometry x="384" y="170" width="60" height="30" as="geometry" />
        </mxCell>
      </root>
    </mxGraphModel>
  </diagram>
</mxfile>
